<?xml version="1.0" standalone="no"?>
<!DOCTYPE svg PUBLIC "-//W3C//DTD SVG 20010904//EN"
 "http://www.w3.org/TR/2001/REC-SVG-20010904/DTD/svg10.dtd">
<svg version="1.0" xmlns="http://www.w3.org/2000/svg"
 width="150" height="150" viewBox="0 0 500.000000 500.000000"
 preserveAspectRatio="xMidYMid meet">

<g transform="translate(0.000000,500.000000) scale(0.100000,-0.100000)"
fill="white" stroke="none">
<path d="M2305 3407 c-19 -19 -35 -41 -35 -48 0 -8 -15 -21 -32 -29 -69 -32
-85 -117 -34 -177 19 -21 35 -28 77 -33 39 -3 54 -9 54 -20 0 -10 -13 -16 -42
-18 -40 -3 -43 -5 -43 -31 0 -16 -7 -34 -15 -41 -8 -7 -15 -18 -15 -25 0 -19
25 -36 44 -29 18 7 22 39 6 49 -5 3 -10 19 -10 36 0 28 2 29 45 29 42 0 45 2
45 26 0 21 4 25 23 22 19 -3 22 -10 25 -60 3 -49 0 -57 -17 -63 -12 -3 -25 -4
-30 -1 -24 15 -41 -7 -41 -52 0 -28 -6 -52 -16 -63 -21 -24 -11 -49 20 -49 29
0 39 22 21 47 -8 10 -15 37 -15 61 l0 42 45 0 45 0 0 70 c0 56 3 70 15 70 12
0 15 -17 15 -90 0 -83 -1 -90 -20 -90 -11 0 -20 -5 -20 -12 0 -6 -7 -19 -15
-28 -19 -21 -10 -50 15 -50 29 0 42 24 25 46 -20 26 -19 34 5 34 17 0 20 8 22
92 2 60 7 93 15 95 8 3 13 -16 15 -64 l3 -68 43 -3 c39 -3 42 -5 42 -33 0 -16
-5 -38 -12 -48 -15 -24 -4 -51 22 -51 28 0 36 26 16 49 -9 10 -16 34 -16 54 0
35 -1 36 -42 39 l-43 3 -3 61 -3 61 81 1 c92 2 113 10 136 54 24 46 11 91 -36
130 -22 17 -40 39 -40 49 0 9 -16 31 -36 48 -32 29 -42 32 -97 31 -34 -1 -83
2 -109 5 -45 7 -50 5 -83 -28z m131 8 c14 -11 16 -15 4 -15 -18 -1 -56 -28
-48 -35 3 -3 18 1 34 10 36 19 42 19 78 0 39 -20 46 -18 17 5 -13 11 -31 20
-40 20 -14 0 -14 2 -1 10 43 28 126 -9 137 -61 4 -21 17 -38 38 -50 31 -19 55
-55 55 -84 0 -9 -8 -6 -25 10 -13 14 -33 25 -45 25 -22 0 -70 -41 -70 -60 0
-18 15 -11 25 13 15 34 65 30 85 -6 14 -27 14 -29 -9 -48 -21 -17 -40 -19
-221 -19 -183 0 -199 1 -223 20 -33 26 -51 79 -38 112 10 27 56 68 75 68 7 0
18 16 25 35 20 57 101 85 147 50z m-168 -432 c-2 -10 -10 -18 -18 -18 -8 0
-16 8 -18 18 -2 12 3 17 18 17 15 0 20 -5 18 -17z m152 -103 c0 -11 -6 -20
-13 -20 -19 0 -27 10 -20 26 8 21 33 17 33 -6z m175 0 c0 -8 -8 -16 -17 -18
-13 -2 -18 3 -18 18 0 15 5 20 18 18 9 -2 17 -10 17 -18z m-268 -15 c7 -20 -2
-29 -21 -22 -9 4 -13 13 -10 22 8 19 23 19 31 0z"/>
<path d="M2400 3255 c0 -10 -10 -15 -34 -15 -23 0 -42 -8 -60 -27 -35 -35 -25
-42 14 -9 36 30 62 32 104 11 43 -23 67 -18 29 5 -18 11 -33 27 -33 35 0 8 -4
15 -10 15 -5 0 -10 -7 -10 -15z"/>
<path d="M2550 3078 c0 -5 20 -8 45 -8 44 0 45 0 45 -34 0 -22 -6 -36 -16 -40
-24 -9 -14 -50 14 -54 27 -4 40 23 24 49 -7 10 -12 34 -12 53 0 34 0 34 -50
38 -28 1 -50 0 -50 -4z m108 -111 c2 -10 -3 -17 -12 -17 -18 0 -29 16 -21 31
9 14 29 6 33 -14z"/>
</g>
</svg>
